<?xml version="1.0" standalone="no"?>
<!DOCTYPE svg PUBLIC "-//W3C//DTD SVG 20010904//EN"
 "http://www.w3.org/TR/2001/REC-SVG-20010904/DTD/svg10.dtd">
<svg version="1.0" xmlns="http://www.w3.org/2000/svg"
 width="1280.000000pt" height="1149.000000pt" viewBox="0 0 1280.000000 1149.000000"
 preserveAspectRatio="xMidYMid meet">
<g transform="translate(0.000000,1149.000000) scale(0.100000,-0.100000)"
fill="#e91e63" stroke="none">
<path d="M8585 11477 c-2 -7 -58 -367 -124 -801 -66 -434 -122 -791 -124 -793
-3 -2 -571 208 -1263 466 -693 258 -1265 471 -1273 473 -12 2 -34 -121 -113
-632 -55 -349 -101 -636 -103 -638 -2 -2 -571 209 -1266 468 -694 259 -1265
468 -1269 463 -4 -4 -58 -341 -120 -748 -63 -407 -117 -744 -120 -748 -4 -5
-535 190 -1181 432 -646 242 -1180 441 -1188 443 -11 2 -57 -278 -227 -1382
-117 -762 -211 -1387 -209 -1388 2 -2 252 -97 557 -212 383 -143 552 -212 551
-221 -36 -265 -160 -1037 -169 -1044 -11 -10 -440 -2753 -431 -2761 2 -3 296
-114 653 -247 630 -235 649 -243 646 -267 -2 -14 -49 -322 -106 -685 -57 -363
-100 -663 -96 -668 3 -4 590 -225 1303 -492 714 -266 1302 -487 1307 -490 5
-3 11 3 14 12 3 10 60 376 127 813 67 437 125 799 129 803 4 4 488 -172 1076
-391 912 -341 1070 -397 1076 -383 4 9 57 342 119 741 61 399 113 727 114 728
2 2 591 -217 1310 -486 815 -306 1308 -486 1310 -479 2 7 43 268 90 582 48
314 89 572 91 574 2 2 591 -200 1309 -449 718 -249 1307 -451 1309 -449 3 5
495 2751 499 2788 2 23 -20 32 -638 247 -352 123 -643 224 -646 226 -4 2 44
284 107 628 76 419 182 1075 323 1993 116 753 211 1377 211 1387 0 14 -104 56
-552 225 -304 114 -554 208 -555 209 -2 1 38 265 87 587 49 321 86 587 82 590
-4 4 -596 227 -1315 497 -827 310 -1310 486 -1312 479z"/>
</g>
</svg>
